<svg xmlns:dc="http://purl.org/dc/elements/1.1/" xmlns:cc="http://creativecommons.org/ns#" xmlns:rdf="http://www.w3.org/1999/02/22-rdf-syntax-ns#" xmlns:svg="http://www.w3.org/2000/svg" xmlns="http://www.w3.org/2000/svg" xmlns:sodipodi="http://sodipodi.sourceforge.net/DTD/sodipodi-0.dtd" xmlns:inkscape="http://www.inkscape.org/namespaces/inkscape" width="64" height="64" viewBox="0 0 16.933333 16.933334" version="1.1" id="svg8" inkscape:version="0.92.3 (2405546, 2018-03-11)" sodipodi:docname="04-Education.svg">
  <defs id="defs2"></defs>
  <sodipodi:namedview id="base" pagecolor="#ffffff" bordercolor="#959595" borderopacity="1" inkscape:pageopacity="0" inkscape:pageshadow="2" inkscape:zoom="4" inkscape:cx="3.2341966" inkscape:cy="8.7988332" inkscape:document-units="px" inkscape:current-layer="layer1" inkscape:document-rotation="0" showgrid="false" units="px" inkscape:window-width="1920" inkscape:window-height="1040" inkscape:window-x="0" inkscape:window-y="0" inkscape:window-maximized="1" inkscape:pagecheckerboard="0" inkscape:snap-bbox="true" inkscape:bbox-nodes="true">
    <inkscape:grid type="xygrid" id="grid822"></inkscape:grid>
  </sodipodi:namedview>
  <metadata id="metadata5">
    <rdf:rdf>
      <cc:work rdf:about="">
        <dc:format>image/svg+xml</dc:format>
        <dc:type rdf:resource="http://purl.org/dc/dcmitype/StillImage"></dc:type>
      </cc:work>
    </rdf:rdf>
  </metadata>
  <g inkscape:label="04-Education" inkscape:groupmode="layer" id="layer1">
    <path style="color: rgb(0, 0, 0); font-style: normal; font-variant: normal; font-weight: normal; font-stretch: normal; font-size: medium; line-height: normal; font-family: sans-serif; font-feature-settings: normal; text-indent: 0px; text-align: start; text-decoration: none solid rgb(0, 0, 0); letter-spacing: normal; word-spacing: normal; text-transform: none; writing-mode: lr-tb; direction: ltr; text-orientation: mixed; dominant-baseline: auto; baseline-shift: baseline; text-anchor: start; white-space: normal; clip-rule: nonzero; display: inline; overflow: visible; visibility: visible; opacity: 1; isolation: auto; mix-blend-mode: normal; color-interpolation: srgb; color-interpolation-filters: linearrgb; vector-effect: none; fill: rgb(230, 197, 53); fill-opacity: 1; fill-rule: nonzero; stroke: none; stroke-width: 0.529167; stroke-linecap: round; stroke-linejoin: miter; stroke-miterlimit: 4; stroke-dasharray: none; stroke-dashoffset: 0; stroke-opacity: 1; color-rendering: auto; image-rendering: auto; shape-rendering: auto; text-rendering: auto;" d="M 1.198333,0.19791484 C 1.034388,0.82734562 0.63872029,1.2957912 0.17104471,1.4732558 c -0.22898292,0.087898 -0.226493,0.4071476 0,0.494005 0.46783558,0.1767946 0.86484329,0.6445502 1.02935819,1.273791 0.069298,0.262882 0.4422363,0.262882 0.5115842,0 C 1.875932,2.611631 2.2736699,2.1426554 2.7413453,1.9652008 2.9674984,1.8775035 2.9660186,1.5571532 2.7383454,1.4711859 2.2705099,1.2944013 1.8755621,0.82716562 1.7110472,0.19791484 1.6805481,0.08200838 1.5760613,4.9086514e-4 1.45573,8.8011074e-7 1.3346788,-3.0911042e-4 1.229022,0.0812984 1.198333,0.19791484 Z M 7.9372549,8.8011074e-7 C 7.812929,3.7086881e-4 7.7056321,0.08729822 7.6793931,0.2087645 L 6.8846376,3.9138614 c -0.034098,0.1645748 0.091798,0.3188402 0.2599219,0.3183103 H 8.4663987 V 6.349297 c 0,0.1937141 0.050198,0.3734186 0.1414257,0.5301839 C 6.442311,6.8792408 4.2826377,6.8789519 2.1171146,6.8789519 0.9490907,6.8789609 0,7.8211821 0,8.9950464 v 1.0582966 c 0,0.802056 0.4407464,1.493365 1.0908563,1.853064 C 0.44086639,12.266456 0,12.957785 0,13.7574 v 1.058298 c 0,1.177324 0.9490907,2.117635 2.1171146,2.117635 H 12.43607 c 0.146166,-5.02e-4 0.264102,-0.119956 0.263542,-0.266122 v -1.056237 c 5.56e-4,-0.146166 -0.117376,-0.265092 -0.263542,-0.265602 h -0.266641 v -2.116605 h 0.265601 c 0.145406,-5.03e-4 0.263032,-0.118657 0.263542,-0.264062 -6.6e-5,-0.70604 10e-4,-1.410079 10e-4,-2.115915 5.55e-4,-0.146165 -0.117376,-0.265092 -0.263542,-0.265603 H 12.169389 V 8.4665819 h 0.265601 c 0.145406,-5.027e-4 0.263032,-0.1186565 0.263542,-0.264062 V 7.4082841 h 1.587971 c 0.589032,0 1.058818,-0.4771053 1.058818,-1.0588175 V 4.2323413 h 0.529193 v 3.1759428 h -0.263542 c -0.146925,-5.556e-4 -0.266171,0.1186766 -0.265611,0.265602 v 1.8515141 c 5.82e-4,0.1461145 0.119496,0.2641019 0.265611,0.2635409 H 16.6672 c 0.146315,8.47e-4 0.265542,-0.1172264 0.266132,-0.2635409 V 7.6738861 C 16.933887,7.5267607 16.814325,7.4074343 16.6672,7.4082841 H 16.403658 V 4.2323413 H 16.6672 c 0.168075,5.291e-4 0.294051,-0.1537355 0.259932,-0.3183105 L 16.132366,0.2089345 C 16.106167,0.08741822 15.99883,5.4086362e-4 15.874514,1.7087493e-4 Z M 8.1501485,0.52915472 h 7.5093925 l 0.283701,1.32235948 h -3.037966 c -0.0625,-0.1343258 -0.169105,-0.2493323 -0.290411,-0.3301998 -0.195324,-0.130216 -0.450406,-0.198434 -0.708978,-0.198434 -0.258587,0 -0.513669,0.068198 -0.708983,0.198434 -0.195324,0.130206 -0.349839,0.3424495 -0.349839,0.5958118 0,0.2533522 0.154515,0.4635258 0.349839,0.5937419 0.195314,0.1302059 0.442126,0.198944 0.708983,0.198944 0.266842,0 0.513654,-0.068698 0.708978,-0.198944 0.121686,-0.081098 0.228483,-0.1958941 0.290931,-0.3302 h 3.151123 L 16.34113,3.7050877 H 7.4706296 Z M 4.7623529,1.5864224 C 4.6441768,1.5869331 4.5404998,1.66522 4.508631,1.7791665 4.3673052,2.2766213 4.0264556,2.6483001 3.6161983,2.7909657 c -0.2371925,0.082298 -0.2371925,0.4174272 0,0.4996949 0.4100975,0.1432055 0.7495171,0.516264 0.8903626,1.0138589 0.035998,0.1292159 0.1461656,0.193464 0.255792,0.1932639 0.1096168,2.001e-4 0.2197533,-0.064098 0.2557921,-0.1932639 0.1408458,-0.4975949 0.4802553,-0.8706534 0.8903526,-1.0138589 0.2371927,-0.082298 0.2371927,-0.4174274 0,-0.4996949 C 5.4982402,2.6483001 5.1573909,2.2766213 5.0160753,1.7791665 4.9841762,1.66519 4.8805193,1.5869324 4.7623529,1.5864224 Z M 2.3909963,3.8968019 C 2.2693799,4.3316687 1.9795588,4.6533387 1.6329196,4.775795 c -0.2371927,0.082298 -0.2371927,0.4179474 0,0.5002147 0.3465092,0.1229164 0.6358303,0.4455466 0.7570366,0.8805331 0.035498,0.1273763 0.1456056,0.1916444 0.2537223,0.1932643 v 5.291e-4 c 7.089e-4,0 9.999e-4,-5.026e-4 0.002,-5.291e-4 7.09e-4,9.8e-6 9.999e-4,5.291e-4 0.002,5.291e-4 V 6.3498071 C 2.7558049,6.3477972 2.8658816,6.2839091 2.9014006,6.1565428 3.0226066,5.7215563 3.3119278,5.3989261 3.6584372,5.2760097 3.8956397,5.193712 3.8956397,4.8580625 3.6584372,4.775795 3.3117981,4.6533387 3.0219872,4.3316687 2.9003711,3.8968019 2.8687721,3.7838353 2.7646051,3.7059277 2.6456836,3.7040577 2.526762,3.7060676 2.4225752,3.7838552 2.3909963,3.8968019 Z M 2.1171146,7.4081148 H 12.170459 v 0.5281138 c -3.3511512,0.00101 -6.7011879,0 -10.0533444,0 -0.581722,0 -1.0582973,0.4688357 -1.0582973,1.0588178 v 1.0582966 c 0,0.581723 0.4662356,1.058818 1.0582973,1.058818 h 6.8789578 v 0.529154 H 2.1171146 c -0.8778329,10e-6 -1.58797095,-0.703948 -1.58797095,-1.587972 V 8.9950464 c 0,-0.8767132 0.70393825,-1.5868216 1.58797095,-1.5869316 z m 0,1.0582928 c 1.813414,-4.451e-4 3.6201084,-1.152e-4 5.4330923,4.7e-6 C 7.4584093,8.6230075 7.4081014,8.8025822 7.4081014,8.996076 V 9.2601381 H 6.349804 c -0.3531592,3.175e-4 -0.3531592,0.529454 0,0.529154 H 8.9960724 V 10.583017 H 2.1171146 c -0.291521,0 -0.5291536,-0.231953 -0.5291536,-0.529674 V 9.5247103 h 1.3223592 c 0.3531592,3.18e-4 0.3531592,-0.528844 0,-0.529144 L 1.587961,8.9953017 c 0,-0.2897157 0.2314228,-0.5288786 0.5291536,-0.5288941 z m 6.3492841,4.7e-6 c 0.2904911,0 0.5296737,0.2319529 0.5296737,0.5296637 V 9.2596182 H 7.9372549 V 8.996076 c 0,-0.2977108 0.2386527,-0.5296637 0.5291438,-0.5296637 z m 2.5052023,0 c 0.225293,10e-6 0.445426,-1.01e-5 0.670739,0 V 10.583017 H 11.113186 V 8.996076 c 0,-0.1934639 -0.0507,-0.3730786 -0.141585,-0.5296637 z m -7.0029736,1.058298 c -0.3528591,0 -0.3528591,0.5291527 0,0.5291527 h 1.3228693 c 0.3528591,0 0.3528591,-0.5291527 0,-0.5291527 z m 7.1445586,1.5874507 h 1.057273 v 0.529154 h -1.057273 z m -9.0012412,1.058818 c 0.002,10e-6 0.003,0 0.005,0 h 6.8789578 v 0.527604 H 2.1169447 c -0.581722,0 -1.0582973,0.468835 -1.0582973,1.058817 v 1.058298 c 0,0.581722 0.4662356,1.058818 1.0582973,1.058818 H 12.170289 V 16.40367 H 2.1169446 C 1.2391117,16.40368 0.52897368,15.699721 0.52897368,14.815698 V 13.7574 c 0,-0.874973 0.70123832,-1.583501 1.58280122,-1.586421 z m 9.0012412,0 h 1.057273 v 0.527604 l -1.057273,0.001 z M 8.9960724,13.228247 V 13.7574 c 2.201e-4,0.210534 0.2339527,0.33646 0.4097774,0.220654 l 0.6485192,-0.431487 0.64645,0.431487 c 0.176165,0.118276 0.413187,-0.008 0.412367,-0.220654 v -0.528633 h 0.529154 v 2.116605 H 2.1171146 c -0.291351,0 -0.5288736,-0.231693 -0.5291536,-0.529154 h 1.851513 c 0.3531588,3.18e-4 0.3531588,-0.528844 0,-0.529154 H 1.587961 V 13.7574 c 0,-0.289451 0.2314228,-0.528603 0.5291536,-0.528633 z M 4.4977712,13.75792 c -0.3528491,0 -0.3528491,0.529144 0,0.529144 h 1.3228792 c 0.3528492,0 0.3528492,-0.529144 0,-0.529144 z m 2.3811765,0.529144 c -0.3528492,0 -0.3528492,0.529154 0,0.529154 h 1.3228792 c 0.3528491,0 0.3528491,-0.529154 0,-0.529154 z" id="path12387" inkscape:connector-curvature="0" sodipodi:nodetypes="cccccccccccccccccccccccccccccccccccccccccccccccccccccccccccccccccccccccccccccccccccccccccccccccccccccccccccccccccccccccccccccccccccccccccccccccccccccccccccccccccccccccccccccccccccccccccccccccccccccc"></path>
  </g>
</svg>