<svg version="1.1" id="Solid_Line" xmlns="http://www.w3.org/2000/svg" xmlns:xlink="http://www.w3.org/1999/xlink" x="0px" y="0px" viewBox="0 0 512 512" enable-background="new 0 0 512 512" xml:space="preserve">
<path d="M504.184,272c0.05-0.013,0.084-0.05,0.134-0.063c4.268-0.175,7.769-3.619,7.769-7.929c0-4.414-3.492-7.984-7.91-7.984
	C501.922,255.281,496,245.547,496,228c0-17.602,5.926-27.281,8.184-28c0.041-0.01,0.069-0.042,0.11-0.052
	c3.874-0.143,7.183-3.041,7.652-7.01c0.516-4.391-2.621-8.367-7.012-8.883l-257.832-30.32c-10.023-1.188-20.184-1.188-30.215,0
	l-185.84,22.32c-0.044,0.005-0.078,0.034-0.123,0.041C15.881,177.097,8,198.646,8,220c0,13.759,3.276,27.599,9.622,35.988
	C11.271,264.377,8,278.236,8,292c0,13.161,3.005,26.393,8.821,34.863C5.749,337.981,0,361.059,0,384
	c0,31.539,10.809,63.461,31.469,63.992l271.594,31.953c0.312,0.039,0.625,0.055,0.938,0.055c0.32,0,0.637-0.016,0.953-0.055
	L368,472.379V504c0,3.594,2.398,6.75,5.863,7.711c0.711,0.195,1.426,0.289,2.137,0.289c2.758,0,5.387-1.43,6.859-3.883
	l17.879-29.797l16.863,22.477c2.066,2.758,5.66,3.891,8.93,2.789C429.797,502.5,432,499.445,432,496v-31.299l72.953-8.756
	c4.203-0.508,7.285-4.195,7.031-8.422c-0.25-4.227-3.75-7.523-7.984-7.523c-5.641,0-16-18.227-16-48c0-29.523,9.824-46.609,16-48
	c4.418,0,8.086-3.57,8.086-7.992c0-4.109-3.031-7.492-7.016-7.938c-0.312-0.039-0.633-0.062-0.953-0.07
	c-2.293-0.883-8.117-10.594-8.117-28C496,282.398,501.926,272.719,504.184,272z M486.057,258.122l-181.97,21.809
	C301.771,279.006,296,269.388,296,252c0-17.547,5.922-27.281,8-28c0.001,0,0.003-0.001,0.005-0.001
	c0.315-0.001,0.629-0.015,0.948-0.054l179.229-21.479C481.395,210.136,480,219.217,480,228
	C480,238.9,482.05,249.864,486.057,258.122z M218.781,169.625c8.766-1.047,17.664-1.031,26.445,0l191.036,22.464l-132.278,15.853
	l-193.848-22.849c-0.023-0.003-0.043,0.008-0.067,0.005c-0.005,0-0.01-0.004-0.015-0.005l-10.152-1.19L218.781,169.625z
	 M284.2,277.587l-173.142-20.314C109.167,250.681,108,241.56,108,232c0-5.211,0.309-10.25,0.918-14.977
	c0.55-4.253-2.378-8.093-6.556-8.84c0.635-2.875,1.389-5.407,2.229-7.621l3.596,0.422c0.021,0.002,0.039-0.007,0.06-0.005
	c0.005,0,0.009,0.004,0.015,0.005l177.762,20.953C282.039,230.188,280,241.125,280,252C280,260.803,281.399,269.907,284.2,277.587z
	 M31.895,192.039l28.867,3.385C58.067,203.24,56,213.132,56,224c0,10.013,1.089,19.406,2.984,27.112l-26.809-3.089
	C29.922,247.281,24,237.547,24,220C24,202.734,29.73,193.039,31.895,192.039z M31.935,264.047l37.898,4.418
	c0.132,0.022,0.236,0.105,0.37,0.121l135.406,15.888c-0.533,1.238-1.042,2.545-1.532,3.929c-0.159-0.047-0.277-0.162-0.441-0.2
	c-4.289-0.977-8.602,1.688-9.598,6C192.688,300.07,192,306.055,192,312c0,10.044,1.258,19.404,3.482,27.18L96.38,327.555
	c-0.06-0.003-0.115-0.019-0.175-0.021l-31.889-3.741c-0.069-0.003-0.133-0.022-0.202-0.023l-31.938-3.747
	C29.922,319.281,24,309.547,24,292C24,274.604,29.811,264.914,31.935,264.047z M32.938,432.055C32.629,432.016,32.312,432,32,432
	c-5.641,0-16-18.227-16-48c0-29.586,10.22-47.729,15.884-47.958l18.188,2.137c-6.179,12.812-9.911,31.442-9.911,51.898
	c0,16.261,2.361,31.517,6.474,43.588L32.938,432.055z M96.694,439.556c-5.296-10.517-8.534-27.48-8.534-45.634
	c0-23.411,5.309-41.806,11.138-49.958l108.5,12.75c0.237,0.021,0.459,0.145,0.697,0.145c0.062,0,0.122-0.031,0.184-0.033
	c-5.47,12.744-8.68,30.447-8.68,49.494c0,17.509,2.742,33.821,7.41,46.262L96.694,439.556z M280.797,461.216l-22.504-2.647
	C252.936,450.042,248,432.622,248,409.68c0-19.112,3.554-36.883,9.226-47.156l26.338,3.095C275.943,377.951,272,397.021,272,416
	C272,431.677,274.835,448.674,280.797,461.216z M284.2,349.587l-38.625-4.531C243.365,338.51,242,329.452,242,320
	c0-15.893,3.332-26.491,5.852-30.569l38.194,4.481C282.049,302.167,280,313.112,280,324C280,332.803,281.399,341.907,284.2,349.587z
	 M432,448.582v-47.874l5.027-0.606c4.387-0.523,7.52-4.508,6.992-8.898c-0.52-4.383-4.59-7.531-8.891-6.992l-12.022,1.451
	c-0.021,0.002-0.039-0.008-0.06-0.006l-48,5.758c-0.087,0.011-0.157,0.064-0.244,0.077l-9.975,1.204
	c-4.387,0.516-7.527,4.492-7.012,8.883c0.477,4.07,3.934,7.062,7.934,7.062c0.312,0,0.629-0.016,0.945-0.055l1.305-0.157v47.832
	l-64.008,7.685l-0.706-0.083C297.779,462.525,288,445.461,288,416c0-29.773,10.359-48,16-48c0.316,0,0.637-0.016,0.953-0.055
	l175.853-21.082C474.859,359.4,472,376.337,472,392c0,18.961,3.91,38.07,11.516,50.398L432,448.582z M304.09,351.933
	c-2.313-0.919-8.09-10.54-8.09-27.933c0-17.547,5.922-27.281,8-28c0.316,0,0.637-0.016,0.953-0.055l179.229-21.479
	C481.395,282.136,480,291.217,480,300c0,10.96,2.19,21.82,6.242,30.093L304.09,351.933z" id="id_101" style="fill: rgb(230, 197, 53);"></path>
</svg>