<svg width="64" height="64" viewBox="0 0 64 64" fill="none" xmlns="http://www.w3.org/2000/svg">
<path d="M53 37V35.3C53.8 34.4 54.4 33.2 54.7 32C54.8 32 54.9 32 55 32C57.2 32 59 30 59 27.5C59 27.4 59 27.3 59 27.3C59.7 26.1 60 24.8 60 23.5C60 20.3 58.4 17.5 55.7 15.8L54.1 14.8C51.3 13.1 47.9 12.9 45.2 14.4C44.5 14.1 43.8 14 43 14C39.1 14 36 17.1 36 21C36 23.3 37.2 25.5 39 26.8C39 27.1 39 27.3 39 27.6V30C39 33 40.6 35.5 43 36.9V37.6C41.2 38.3 39.8 39.7 38.9 41.3L33.2 47L32.9 44.5C32.6 41.9 30.5 40 27.9 40H14C12.6 40 11.2 40.6 10.3 41.6C9.4 42.6 8.9 44 9 45.5L10.2 57.5C10.5 60.1 12.6 62 15.2 62H56C59.3 62 62 59.3 62 56V46C62 41 58 37 53 37ZM31.4 60H15.2C13.7 60 12.4 58.8 12.2 57.3L11 45.3C10.9 44.4 11.2 43.6 11.8 43C12.4 42.4 13.2 42 14 42H28C29.5 42 30.8 43.2 31 44.7L32.2 59.7C31.9 59.9 31.7 60 31.4 60ZM37 59V60H34.2C34.3 59.6 34.4 59.1 34.4 58.7L34.3 58H37.2C37.1 58.3 37 58.7 37 59ZM35.6 56L38.9 52.7C39 52.9 39.1 53.2 39.2 53.4C39.5 54 39.7 54.6 39.8 55.2C39.3 55.4 38.8 55.6 38.5 56H35.6ZM43 60H39V59C39 57.9 39.9 57.1 40.9 57H41H43V60ZM57 27.5C57 28.9 56.1 30 55 30C53.9 30 53 28.9 53 27.5C53 26.1 53.9 25 55 25C56.1 25 57 26.1 57 27.5ZM50.3 15.4C52.9 17 54.7 19.8 55 23C54.6 23 54.1 23.1 53.7 23.3C53.5 23.1 53.2 22.9 52.9 22.8C52.5 20.1 50.7 17.7 48.1 16.6L46.6 16C47.7 15.4 49 15.3 50.3 15.4ZM41 30V27.5C41 25.2 41.8 23.1 43.4 21.4C45.5 23.4 48.4 24.4 51.3 24.3C51.6 24.3 51.9 24.4 52.1 24.5C51.5 25.3 51.1 26.3 51.1 27.5C51.1 28.4 51.3 29.2 51.7 29.9L50.9 30.5C49.5 31.5 47.8 32.1 46 32.1C45.4 32.1 45 32.5 45 33.1C45 33.7 45.4 34.1 46 34.1C48.2 34.1 50.3 33.4 52 32.2L52.7 31.7C52 34.3 49.7 36.2 46.9 36.2C43.7 36 41 33.3 41 30ZM51 36.9C51 39.2 49.2 41 47 41C45.9 41 45 40.1 45 39V37.7C45.6 37.9 46.3 38 47 38C48.5 38 49.8 37.6 51 36.9ZM56 55C56 55.5 55.6 55.9 55.1 56L44.8 56.9H44.7C44.2 56.9 43.8 56.5 43.7 56C43.7 55.5 44.1 55 44.6 54.9L54 54V47C54 46.4 54.4 46 55 46C55.6 46 56 46.4 56 47V55V55Z" fill="#e6c535" id="id_101"></path>
<path d="M21 54C22.6569 54 24 52.6569 24 51C24 49.3431 22.6569 48 21 48C19.3431 48 18 49.3431 18 51C18 52.6569 19.3431 54 21 54Z" fill="#e6c535" id="id_102"></path>
<path d="M43 28C43.5523 28 44 27.5523 44 27C44 26.4477 43.5523 26 43 26C42.4477 26 42 26.4477 42 27C42 27.5523 42.4477 28 43 28Z" fill="#e6c535" id="id_103"></path>
<path d="M48 28C48.5523 28 49 27.5523 49 27C49 26.4477 48.5523 26 48 26C47.4477 26 47 26.4477 47 27C47 27.5523 47.4477 28 48 28Z" fill="#e6c535" id="id_104"></path>
<path d="M21.3 37.7C21.5 37.9 21.7 38 22 38C22.1 38 22.3 38 22.4 37.9C22.8 37.7 23 37.4 23 37V31H27C29.8 31 32 28.8 32 26V7C32 4.2 29.8 2 27 2H7C4.2 2 2 4.2 2 7V26C2 28.8 4.2 31 7 31H14.6L21.3 37.7ZM4 26V7C4 5.3 5.3 4 7 4H27C28.7 4 30 5.3 30 7V26C30 27.7 28.7 29 27 29H22C21.4 29 21 29.4 21 30V34.6L15.7 29.3C15.5 29.1 15.3 29 15 29H7C5.3 29 4 27.7 4 26Z" fill="#e6c535" id="id_105"></path>
<path d="M17 14H15.5C14.9 14 14.5 14.4 14.5 15V18V21C14.5 21.6 14.9 22 15.5 22H17C18.4 22 19.5 20.9 19.5 19.5C19.5 18.9 19.3 18.4 19 18C19.3 17.6 19.5 17.1 19.5 16.5C19.5 15.1 18.4 14 17 14ZM16.5 16H17C17.3 16 17.5 16.2 17.5 16.5C17.5 16.8 17.3 17 17 17H16.5V16ZM17 20H16.5V19H17C17.3 19 17.5 19.2 17.5 19.5C17.5 19.8 17.3 20 17 20Z" fill="#e6c535" id="id_106"></path>
<path d="M24 25V7C24 6.4 23.6 6 23 6H13C11.3 6 10 7.3 10 9V25C10 25.6 10.4 26 11 26H23C23.6 26 24 25.6 24 25ZM12 24V11.8C12.3 11.9 12.6 12 13 12H22V24H12Z" fill="#e6c535" id="id_107"></path>
</svg>